<svg width="176.796875px" height="87.8px" xmlns="http://www.w3.org/2000/svg" viewBox="161.6015625 31.1 176.796875 87.8" style="background: rgba(0, 0, 0, 0);" preserveAspectRatio="xMidYMid"><defs><linearGradient id="editing-shiny-gradient" x1="0.04322727117869957" x2="0.9567727288213004" y1="0.2966316784620999" y2="0.7033683215379001" gradientUnits="objectBoundingBox"><stop offset="0.0" stop-color="#ffb200"></stop><stop offset="0.5" stop-color="#e10057"></stop><stop offset="1.0" stop-color="#5A1A80"></stop></linearGradient><linearGradient id="editing-shiny-gradient2" x1="0" x2="0" y1="0" y2="1"><stop offset="0.2" stop-color="#fff" stop-opacity="0.8"></stop><stop offset="0.8" stop-color="#fff" stop-opacity="0"></stop></linearGradient><filter id="editing-shiny2" x="-100%" y="-100%" width="300%" height="300%"><feMorphology operator="erode" radius="2"></feMorphology></filter><filter id="editing-shiny" x="-100%" y="-100%" width="300%" height="300%"><feFlood flood-color="#fff" result="flood"></feFlood><feConvolveMatrix in="SourceGraphic" result="conv" order="8,8" divisor="1" kernelMatrix="0 0 0 0 0 0 0 0 0 0 0 1 1 0 0 0 0 0 0 1 1 0 0 0 0 0 1 0 0 1 0 0 0 0 1 0 0 1 0 0 0 1 0 0 0 0 1 0 0 1 1 0 0 1 1 0 0 0 0 1 1 0 0 0 "></feConvolveMatrix><feOffset dx="0" dy="4" in="conv" result="offset"></feOffset><feComposite operator="in" in="flood" in2="offset" result="comp"></feComposite><feGaussianBlur in="offset" stdDeviation="3" result="shadow"></feGaussianBlur><feColorMatrix in="shadow" type="matrix" values="0.7 0 0 0 0  0 0.7 0 0 0  0 0 0.7 0 0  0 0 0 0.3 0" result="dark-shadow"></feColorMatrix><feOffset dx="0" dy="4" in="dark-shadow" result="offset-shadow"></feOffset><feOffset dx="0" dy="2" in="conv" result="offset-2"></feOffset><feComposite operator="out" in="offset" in2="offset-2" result="edge-diff"></feComposite><feGaussianBlur in="edge-diff" stdDeviation="1" result="edge-blur"></feGaussianBlur><feColorMatrix in="edge-blur" result="edge-shadow" type="matrix" values="0 0 0 0 0  0 0 0 0 0  0 0 0 0 0  0 0 0 0.5 0"></feColorMatrix><feComposite operator="in" in="edge-shadow" in2="offset" result="edge-shadow-in"></feComposite><feOffset dx="0" dy="1" in="edge-shadow-in" result="edge-shadow-final"></feOffset><feMerge result="out"><feMergeNode in="offset-shadow"></feMergeNode><feMergeNode in="comp"></feMergeNode><feMergeNode in="edge-shadow-final"></feMergeNode><feMergeNode in="SourceGraphic"></feMergeNode></feMerge></filter></defs><g filter="url(#editing-shiny)"><g transform="translate(161.31332302093506, 98.96999931335449)"><path d="M23.78-22.72L23.78-22.72L23.78-22.72Q24.38-24.32 24.80-26.02L24.80-26.02L24.80-26.02Q25.22-27.71 25.22-29.15L25.22-29.15L25.22-29.15Q25.22-30.59 24.19-34.50L24.19-34.50L24.19-34.50Q22.40-41.02 21.12-42.24L21.12-42.24L20.74-42.69L20.74-42.69Q20.10-43.07 20.10-43.58L20.10-43.58L20.10-43.58Q20.10-44.67 22.98-45.44L22.98-45.44L22.98-45.44Q25.86-46.21 27.68-46.21L27.68-46.21L27.68-46.21Q29.50-46.21 29.82-45.12L29.82-45.12L29.82-45.12Q30.59-42.75 31.52-38.27L31.52-38.27L31.52-38.27Q32.45-33.79 33.12-30.56L33.12-30.56L33.12-30.56Q33.79-27.33 34.18-25.60L34.18-25.60L34.18-25.60Q34.56-23.87 35.20-21.12L35.20-21.12L35.20-21.12Q36.42-16 37.63-12.74L37.63-12.74L37.63-12.74Q38.02-11.84 38.56-11.84L38.56-11.84L38.56-11.84Q39.10-11.84 39.71-12.96L39.71-12.96L39.71-12.96Q40.32-14.08 41.38-16.16L41.38-16.16L41.38-16.16Q42.43-18.24 44.19-23.55L44.19-23.55L44.19-23.55Q45.95-28.86 45.95-32.77L45.95-32.77L45.95-32.77Q45.95-38.78 41.98-41.28L41.98-41.28L41.98-41.28Q41.66-41.66 41.66-42.11L41.66-42.11L41.66-42.11Q41.66-42.56 42.11-43.01L42.11-43.01L42.11-43.01Q42.56-43.33 43.39-43.87L43.39-43.87L43.39-43.87Q44.22-44.42 46.72-45.28L46.72-45.28L46.72-45.28Q49.22-46.14 51.20-46.14L51.20-46.14L51.20-46.14Q53.18-46.14 53.57-45.60L53.57-45.60L53.57-45.60Q53.95-45.06 53.95-43.65L53.95-43.65L53.95-43.65Q53.95-37.44 50.27-27.17L50.27-27.17L50.27-27.17Q46.59-16.90 42.46-9.06L42.46-9.06L42.46-9.06Q38.34-1.22 36.29 0.77L36.29 0.77L36.29 0.77Q35.20 1.73 35.01 1.73L35.01 1.73L35.01 1.73Q34.43 1.73 33.92 0.83L33.92 0.83L33.92 0.83Q31.74-2.82 29.18-13.44L29.18-13.44L29.18-13.44Q28.03-18.43 27.84-19.07L27.84-19.07L27.84-19.07Q27.65-19.71 27.52-19.71L27.52-19.71L27.52-19.71Q27.20-19.71 26.94-19.07L26.94-19.07L26.94-19.07Q24.70-13.89 21.95-8.93L21.95-8.93L21.95-8.93Q19.20-3.97 17.54-1.60L17.54-1.60L15.94 0.77L15.94 0.77Q15.30 1.66 14.66 1.66L14.66 1.66L14.66 1.66Q14.02 1.66 13.50 0.83L13.50 0.83L13.50 0.83Q11.78-2.43 9.28-11.78L9.28-11.78L8.45-14.98L8.45-14.98Q8.19-15.87 7.30-19.84L7.30-19.84L7.30-19.84Q3.90-35.01 2.11-38.78L2.11-38.78L2.11-38.78Q1.09-40.90 0.35-41.54L0.35-41.54L0.35-41.54Q-0.38-42.18-0.83-42.30L-0.83-42.30L-0.83-42.30Q-1.54-42.62-1.54-43.10L-1.54-43.10L-1.54-43.10Q-1.54-43.58-1.02-44.03L-1.02-44.03L-1.02-44.03Q-0.26-44.61 2.37-45.41L2.37-45.41L2.37-45.41Q4.99-46.21 6.78-46.21L6.78-46.21L6.78-46.21Q8.58-46.21 8.90-45.12L8.90-45.12L8.90-45.12Q10.18-42.75 11.90-34.50L11.90-34.50L11.90-34.50Q15.55-17.22 17.28-12.74L17.28-12.74L17.28-12.74Q17.60-11.84 18.18-11.84L18.18-11.84L18.18-11.84Q18.75-11.84 19.20-12.80L19.20-12.80L19.20-12.80Q19.78-13.38 21.47-17.25L21.47-17.25L21.47-17.25Q23.17-21.12 23.78-22.72ZM83.01-7.94L83.01-7.94L83.01-7.94Q83.01-3.46 80.16-1.28L80.16-1.28L80.16-1.28Q77.31 0.90 72.19 0.90L72.19 0.90L72.19 0.90Q64 0.90 60.13-4.54L60.13-4.54L60.13-4.54Q56.26-9.98 56.26-18.75L56.26-18.75L56.26-18.75Q56.26-20.16 56.38-22.85L56.38-22.85L52.80-22.85L52.80-22.85Q52.29-22.85 52.29-23.23L52.29-23.23L52.29-23.23Q52.29-24.32 53.38-25.86L53.38-25.86L53.38-25.86Q54.46-27.39 55.74-27.39L55.74-27.39L56.96-27.39L56.96-27.39Q57.79-32 59.68-35.52L59.68-35.52L59.68-35.52Q61.57-39.04 63.65-40.96L63.65-40.96L63.65-40.96Q65.73-42.88 68.22-44.03L68.22-44.03L68.22-44.03Q72.19-45.95 76.54-45.95L76.54-45.95L76.54-45.95Q80.90-45.95 81.98-44.54L81.98-44.54L81.98-44.54Q82.50-43.84 82.50-41.95L82.50-41.95L82.50-41.95Q82.50-40.06 82.05-40.06L82.05-40.06L82.05-40.06Q81.98-40.06 81.47-40.32L81.47-40.32L81.47-40.32Q79.81-41.09 77.31-41.09L77.31-41.09L77.31-41.09Q71.87-41.09 68.83-37.25L68.83-37.25L68.83-37.25Q65.79-33.41 64.77-27.39L64.77-27.39L64.77-27.39Q69.63-27.46 77.95-27.46L77.95-27.46L77.95-27.46Q78.59-27.46 78.59-27.01L78.59-27.01L78.59-27.01Q78.59-25.98 77.57-24.42L77.57-24.42L77.57-24.42Q76.54-22.85 75.26-22.85L75.26-22.85L64.26-22.85L64.26-22.85Q64.19-22.08 64.19-19.49L64.19-19.49L64.19-19.49Q64.19-16.90 65.12-14.05L65.12-14.05L65.12-14.05Q66.05-11.20 68.58-9.22L68.58-9.22L68.58-9.22Q71.10-7.23 75.14-7.23L75.14-7.23L75.14-7.23Q79.17-7.23 81.92-9.02L81.92-9.02L81.92-9.02Q82.24-9.28 82.50-9.28L82.50-9.28L82.50-9.28Q83.01-9.28 83.01-7.94ZM95.23-28.80L95.23-28.80L95.30-20.80L95.04-9.73L95.04-9.73Q95.10-9.47 95.23-9.47L95.23-9.47L95.23-9.47Q95.36-9.47 95.42-9.60L95.42-9.60L95.42-9.60Q96.70-11.39 98.59-11.39L98.59-11.39L98.59-11.39Q100.48-11.39 100.48-10.62L100.48-10.62L100.48-10.62Q100.48-8.19 101.41-6.88L101.41-6.88L101.41-6.88Q102.34-5.57 104.03-5.57L104.03-5.57L104.03-5.57Q105.73-5.57 107.30-7.87L107.30-7.87L107.30-7.87Q108.86-10.18 108.86-14.02L108.86-14.02L108.86-14.02Q108.86-15.30 108.35-17.09L108.35-17.09L108.35-17.09Q107.33-20.67 104.51-21.89L104.51-21.89L104.51-21.89Q102.46-22.72 97.86-22.72L97.86-22.72L97.86-22.72Q97.34-22.72 97.34-23.42L97.34-23.42L97.34-23.42Q97.34-27.01 98.62-27.14L98.62-27.14L98.62-27.14Q100.35-27.14 102.27-28.03L102.27-28.03L102.27-28.03Q106.11-29.82 106.11-35.39L106.11-35.39L106.11-35.39Q106.11-41.41 99.20-41.41L99.20-41.41L97.22-41.28L97.22-41.28Q96.06-41.02 95.94-40.32L95.94-40.32L95.94-40.13L95.94-40.13Q95.23-37.57 95.23-28.80ZM85.82 0.90L85.82 0.90L85.95 0.19L85.95 0.19Q86.59-0.96 87.04-9.18L87.04-9.18L87.04-9.18Q87.49-17.41 87.49-24.54L87.49-24.54L87.49-24.54Q87.49-31.68 87.20-36L87.20-36L87.20-36Q86.91-40.32 85.63-42.24L85.63-42.24L85.63-42.24Q85.38-42.56 85.38-43.01L85.38-43.01L85.38-43.01Q85.38-43.46 86.14-43.78L86.14-43.78L86.14-43.78Q91.39-45.82 100.42-45.82L100.42-45.82L100.42-45.82Q102.66-45.82 105.28-45.22L105.28-45.22L105.28-45.22Q107.90-44.61 109.60-43.71L109.60-43.71L109.60-43.71Q111.30-42.82 112.67-40.96L112.67-40.96L112.67-40.96Q114.05-39.10 114.24-36.54L114.24-36.54L114.24-36.54Q114.24-27.26 106.56-25.86L106.56-25.86L106.56-25.86Q106.18-25.73 106.18-25.57L106.18-25.57L106.18-25.57Q106.18-25.41 106.50-25.22L106.50-25.22L106.50-25.22Q110.46-24.58 113.15-22.02L113.15-22.02L113.15-22.02Q114.50-20.80 115.58-18.24L115.58-18.24L115.58-18.24Q116.67-15.68 116.67-12.35L116.67-12.35L116.67-12.35Q116.67-8.06 114.18-4.22L114.18-4.22L114.18-4.22Q112.13-1.09 108.22 0.26L108.22 0.26L108.22 0.26Q106.05 1.02 103.36 1.02L103.36 1.02L103.36 1.02Q96.64 1.02 94.85-3.26L94.85-3.26L94.85-3.26Q94.78-3.46 94.66-3.46L94.66-3.46L94.40-3.20L94.40-3.20Q93.06 1.28 86.72 1.47L86.72 1.47L86.72 1.47Q85.82 1.47 85.82 0.90ZM132.03-11.14L132.03-11.14L132.48-29.12L132.48-29.12Q132.48-33.28 132.29-35.97L132.29-35.97L132.29-35.97Q131.97-40.77 131.20-41.98L131.20-41.98L130.94-42.37L130.94-42.37Q130.62-42.62 130.62-43.01L130.62-43.01L130.62-43.01Q130.62-44.22 133.82-44.96L133.82-44.96L133.82-44.96Q137.02-45.70 139.20-45.70L139.20-45.70L139.20-45.70Q141.38-45.70 141.38-44.48L141.38-44.48L141.31-43.78L141.31-43.78Q140.42-37.44 140.22-28.77L140.22-28.77L140.22-28.77Q140.03-20.10 140.03-17.41L140.03-17.41L140.03-17.41Q140.03-14.72 140.22-12.93L140.22-12.93L140.22-12.93Q140.42-11.14 140.45-10.85L140.45-10.85L140.45-10.85Q140.48-10.56 140.77-9.76L140.77-9.76L140.77-9.76Q141.06-8.96 141.50-8.32L141.50-8.32L141.50-8.32Q142.66-6.78 144.77-6.78L144.77-6.78L144.77-6.78Q146.88-6.78 148.32-7.74L148.32-7.74L148.32-7.74Q149.76-8.70 150.46-10.11L150.46-10.11L150.46-10.11Q151.94-13.12 152.26-15.30L152.26-15.30L152.38-16.26L152.38-16.26Q152.70-20.80 152.70-27.01L152.70-27.01L152.70-27.01Q152.70-33.22 152.64-35.14L152.64-35.14L152.64-35.14Q152.58-37.06 152.45-38.30L152.45-38.30L152.45-38.30Q152.32-39.55 152.22-40.51L152.22-40.51L152.22-40.51Q152.13-41.47 152.06-42.02L152.06-42.02L152.06-42.02Q152-42.56 152-42.62L152-42.62L152-42.62Q152-43.33 152.70-43.78L152.70-43.78L152.70-43.78Q153.79-44.61 156.06-45.18L156.06-45.18L156.06-45.18Q158.34-45.76 160.13-45.76L160.13-45.76L160.13-45.76Q161.92-45.76 161.92-44.93L161.92-44.93L161.92-44.93Q161.92-44.80 161.60-42.82L161.60-42.82L161.60-42.82Q160.19-34.11 160.19-18.62L160.19-18.62L160.19-18.62Q160.19-7.17 161.73-2.30L161.73-2.30L161.73-2.30Q161.98-1.54 161.98-1.25L161.98-1.25L161.98-1.25Q161.98-0.96 161.47-0.51L161.47-0.51L161.47-0.51Q159.55 0.96 156.38 0.96L156.38 0.96L156.38 0.96Q153.22 0.96 152.96-0.64L152.96-0.64L152.96-0.64Q152.64-1.47 152.58-3.97L152.58-3.97L152.51-4.74L152.51-4.74Q152.51-5.31 152.26-5.31L152.26-5.31L151.55-4.86L151.55-4.86Q150.34-2.82 148.74-1.44L148.74-1.44L148.74-1.44Q147.14-0.06 145.66 0.45L145.66 0.45L145.66 0.45Q143.55 1.22 141.54 1.22L141.54 1.22L141.54 1.22Q139.52 1.22 137.50 0.16L137.50 0.16L137.50 0.16Q135.49-0.90 134.50-2.30L134.50-2.30L134.50-2.30Q133.50-3.71 132.86-5.63L132.86-5.63L132.86-5.63Q132.03-8.38 132.03-11.14ZM175.87-28.35L175.87-28.35L175.87-28.35Q175.87-8.51 176.77-2.37L176.77-2.37L176.77-2.37Q176.77-0.83 173.82 0.16L173.82 0.16L173.82 0.16Q170.88 1.15 168.96 1.15L168.96 1.15L168.96 1.15Q167.04 1.15 167.04 0.58L167.04 0.58L167.04 0.58Q167.04 0.19 167.23-0.38L167.23-0.38L167.23-0.38Q168.45-3.07 168.45-22.02L168.45-22.02L168.45-22.02Q168.45-39.94 166.91-41.92L166.91-41.92L166.66-42.30L166.66-42.30Q166.27-42.62 166.27-43.10L166.27-43.10L166.27-43.10Q166.27-43.58 166.98-43.90L166.98-43.90L166.98-43.90Q167.94-44.48 170.40-45.06L170.40-45.06L170.40-45.06Q172.86-45.63 174.85-45.63L174.85-45.63L174.85-45.63Q176.83-45.63 176.83-44.74L176.83-44.74L176.83-44.54L176.83-44.54Q176.06-37.89 175.87-28.35Z" fill="url(#editing-shiny-gradient)"></path></g></g><g filter="url(#editing-shiny2)"><g transform="translate(161.35497188568115, 98.97000312805176)"><path d="M23.78-22.72L23.78-22.72L23.78-22.72Q24.38-24.32 24.80-26.02L24.80-26.02L24.80-26.02Q25.22-27.71 25.22-29.15L25.22-29.15L25.22-29.15Q25.22-30.59 24.19-34.50L24.19-34.50L24.19-34.50Q22.40-41.02 21.12-42.24L21.12-42.24L20.74-42.69L20.74-42.69Q20.10-43.07 20.10-43.58L20.10-43.58L20.10-43.58Q20.10-44.67 22.98-45.44L22.98-45.44L22.98-45.44Q25.86-46.21 27.68-46.21L27.68-46.21L27.68-46.21Q29.50-46.21 29.82-45.12L29.82-45.12L29.82-45.12Q30.59-42.75 31.52-38.27L31.52-38.27L31.52-38.27Q32.45-33.79 33.12-30.56L33.12-30.56L33.12-30.56Q33.79-27.33 34.18-25.60L34.18-25.60L34.18-25.60Q34.56-23.87 35.20-21.12L35.20-21.12L35.20-21.12Q36.42-16 37.63-12.74L37.63-12.74L37.63-12.74Q38.02-11.84 38.56-11.84L38.56-11.84L38.56-11.84Q39.10-11.84 39.71-12.96L39.71-12.96L39.71-12.96Q40.32-14.08 41.38-16.16L41.38-16.16L41.38-16.16Q42.43-18.24 44.19-23.55L44.19-23.55L44.19-23.55Q45.95-28.86 45.95-32.77L45.95-32.77L45.95-32.77Q45.95-38.78 41.98-41.28L41.98-41.28L41.98-41.28Q41.66-41.66 41.66-42.11L41.66-42.11L41.66-42.11Q41.66-42.56 42.11-43.01L42.11-43.01L42.11-43.01Q42.56-43.33 43.39-43.87L43.39-43.87L43.39-43.87Q44.22-44.42 46.72-45.28L46.72-45.28L46.72-45.28Q49.22-46.14 51.20-46.14L51.20-46.14L51.20-46.14Q53.18-46.14 53.57-45.60L53.57-45.60L53.57-45.60Q53.95-45.06 53.95-43.65L53.95-43.65L53.95-43.65Q53.95-37.44 50.27-27.17L50.27-27.17L50.27-27.17Q46.59-16.90 42.46-9.06L42.46-9.06L42.46-9.06Q38.34-1.22 36.29 0.77L36.29 0.77L36.29 0.77Q35.20 1.73 35.01 1.73L35.01 1.73L35.01 1.73Q34.43 1.73 33.92 0.83L33.92 0.83L33.92 0.83Q31.74-2.82 29.18-13.44L29.18-13.44L29.18-13.44Q28.03-18.43 27.84-19.07L27.84-19.07L27.84-19.07Q27.65-19.71 27.52-19.71L27.52-19.71L27.52-19.71Q27.20-19.71 26.94-19.07L26.94-19.07L26.94-19.07Q24.70-13.89 21.95-8.93L21.95-8.93L21.95-8.93Q19.20-3.97 17.54-1.60L17.54-1.60L15.94 0.77L15.94 0.77Q15.30 1.66 14.66 1.66L14.66 1.66L14.66 1.66Q14.02 1.66 13.50 0.83L13.50 0.83L13.50 0.83Q11.78-2.43 9.28-11.78L9.28-11.78L8.45-14.98L8.45-14.98Q8.19-15.87 7.30-19.84L7.30-19.84L7.30-19.84Q3.90-35.01 2.11-38.78L2.11-38.78L2.11-38.78Q1.09-40.90 0.35-41.54L0.35-41.54L0.35-41.54Q-0.38-42.18-0.83-42.30L-0.83-42.30L-0.83-42.30Q-1.54-42.62-1.54-43.10L-1.54-43.10L-1.54-43.10Q-1.54-43.58-1.02-44.03L-1.02-44.03L-1.02-44.03Q-0.26-44.61 2.37-45.41L2.37-45.41L2.37-45.41Q4.99-46.21 6.78-46.21L6.78-46.21L6.78-46.21Q8.58-46.21 8.90-45.12L8.90-45.12L8.90-45.12Q10.18-42.75 11.90-34.50L11.90-34.50L11.90-34.50Q15.55-17.22 17.28-12.74L17.28-12.74L17.28-12.74Q17.60-11.84 18.18-11.84L18.18-11.84L18.18-11.84Q18.75-11.84 19.20-12.80L19.20-12.80L19.20-12.80Q19.78-13.38 21.47-17.25L21.47-17.25L21.47-17.25Q23.17-21.12 23.78-22.72ZM83.01-7.94L83.01-7.94L83.01-7.94Q83.01-3.46 80.16-1.28L80.16-1.28L80.16-1.28Q77.31 0.90 72.19 0.90L72.19 0.90L72.19 0.90Q64 0.90 60.13-4.54L60.13-4.54L60.13-4.54Q56.26-9.98 56.26-18.75L56.26-18.75L56.26-18.75Q56.26-20.16 56.38-22.85L56.38-22.85L52.80-22.85L52.80-22.85Q52.29-22.85 52.29-23.23L52.29-23.23L52.29-23.23Q52.29-24.32 53.38-25.86L53.38-25.86L53.38-25.86Q54.46-27.39 55.74-27.39L55.74-27.39L56.96-27.39L56.96-27.39Q57.79-32 59.68-35.52L59.68-35.52L59.68-35.52Q61.57-39.04 63.65-40.96L63.65-40.96L63.65-40.96Q65.73-42.88 68.22-44.03L68.22-44.03L68.22-44.03Q72.19-45.95 76.54-45.95L76.54-45.95L76.54-45.95Q80.90-45.95 81.98-44.54L81.98-44.54L81.98-44.54Q82.50-43.84 82.50-41.95L82.50-41.95L82.50-41.95Q82.50-40.06 82.05-40.06L82.05-40.06L82.05-40.06Q81.98-40.06 81.47-40.32L81.47-40.32L81.47-40.32Q79.81-41.09 77.31-41.09L77.31-41.09L77.31-41.09Q71.87-41.09 68.83-37.25L68.83-37.25L68.83-37.25Q65.79-33.41 64.77-27.39L64.77-27.39L64.77-27.39Q69.63-27.46 77.95-27.46L77.95-27.46L77.95-27.46Q78.59-27.46 78.59-27.01L78.59-27.01L78.59-27.01Q78.59-25.98 77.57-24.42L77.57-24.42L77.57-24.42Q76.54-22.85 75.26-22.85L75.26-22.85L64.26-22.85L64.26-22.85Q64.19-22.08 64.19-19.49L64.19-19.49L64.19-19.49Q64.19-16.90 65.12-14.05L65.12-14.05L65.12-14.05Q66.05-11.20 68.58-9.22L68.58-9.22L68.58-9.22Q71.10-7.23 75.14-7.23L75.14-7.23L75.14-7.23Q79.17-7.23 81.92-9.02L81.92-9.02L81.92-9.02Q82.24-9.28 82.50-9.28L82.50-9.28L82.50-9.28Q83.01-9.28 83.01-7.94ZM95.23-28.80L95.23-28.80L95.30-20.80L95.04-9.73L95.04-9.73Q95.10-9.47 95.23-9.47L95.23-9.47L95.23-9.47Q95.36-9.47 95.42-9.60L95.42-9.60L95.42-9.60Q96.70-11.39 98.59-11.39L98.59-11.39L98.59-11.39Q100.48-11.39 100.48-10.62L100.48-10.62L100.48-10.62Q100.48-8.19 101.41-6.88L101.41-6.88L101.41-6.88Q102.34-5.57 104.03-5.57L104.03-5.57L104.03-5.57Q105.73-5.57 107.30-7.87L107.30-7.87L107.30-7.87Q108.86-10.18 108.86-14.02L108.86-14.02L108.86-14.02Q108.86-15.30 108.35-17.09L108.35-17.09L108.35-17.09Q107.33-20.67 104.51-21.89L104.51-21.89L104.51-21.89Q102.46-22.72 97.86-22.72L97.86-22.72L97.86-22.72Q97.34-22.72 97.34-23.42L97.34-23.42L97.34-23.42Q97.34-27.01 98.62-27.14L98.62-27.14L98.62-27.14Q100.35-27.14 102.27-28.03L102.27-28.03L102.27-28.03Q106.11-29.82 106.11-35.39L106.11-35.39L106.11-35.39Q106.11-41.41 99.20-41.41L99.20-41.41L97.22-41.28L97.22-41.28Q96.06-41.02 95.94-40.32L95.94-40.32L95.94-40.13L95.94-40.13Q95.23-37.57 95.23-28.80ZM85.82 0.90L85.82 0.90L85.95 0.19L85.95 0.19Q86.59-0.96 87.04-9.18L87.04-9.18L87.04-9.18Q87.49-17.41 87.49-24.54L87.49-24.54L87.49-24.54Q87.49-31.68 87.20-36L87.20-36L87.20-36Q86.91-40.32 85.63-42.24L85.63-42.24L85.63-42.24Q85.38-42.56 85.38-43.01L85.38-43.01L85.38-43.01Q85.38-43.46 86.14-43.78L86.14-43.78L86.14-43.78Q91.39-45.82 100.42-45.82L100.42-45.82L100.42-45.82Q102.66-45.82 105.28-45.22L105.28-45.22L105.28-45.22Q107.90-44.61 109.60-43.71L109.60-43.71L109.60-43.71Q111.30-42.82 112.67-40.96L112.67-40.96L112.67-40.96Q114.05-39.10 114.24-36.54L114.24-36.54L114.24-36.54Q114.24-27.26 106.56-25.86L106.56-25.86L106.56-25.86Q106.18-25.73 106.18-25.57L106.18-25.57L106.18-25.57Q106.18-25.41 106.50-25.22L106.50-25.22L106.50-25.22Q110.46-24.58 113.15-22.02L113.15-22.02L113.15-22.02Q114.50-20.80 115.58-18.24L115.58-18.24L115.58-18.24Q116.67-15.68 116.67-12.35L116.67-12.35L116.67-12.35Q116.67-8.06 114.18-4.22L114.18-4.22L114.18-4.22Q112.13-1.09 108.22 0.26L108.22 0.26L108.22 0.26Q106.05 1.02 103.36 1.02L103.36 1.02L103.36 1.02Q96.64 1.02 94.85-3.26L94.85-3.26L94.85-3.26Q94.78-3.46 94.66-3.46L94.66-3.46L94.40-3.20L94.40-3.20Q93.06 1.28 86.72 1.47L86.72 1.47L86.72 1.47Q85.82 1.47 85.82 0.90ZM132.03-11.14L132.03-11.14L132.48-29.12L132.48-29.12Q132.48-33.28 132.29-35.97L132.29-35.97L132.29-35.97Q131.97-40.77 131.20-41.98L131.20-41.98L130.94-42.37L130.94-42.37Q130.62-42.62 130.62-43.01L130.62-43.01L130.62-43.01Q130.62-44.22 133.82-44.96L133.82-44.96L133.82-44.96Q137.02-45.70 139.20-45.70L139.20-45.70L139.20-45.70Q141.38-45.70 141.38-44.48L141.38-44.48L141.31-43.78L141.31-43.78Q140.42-37.44 140.22-28.77L140.22-28.77L140.22-28.77Q140.03-20.10 140.03-17.41L140.03-17.41L140.03-17.41Q140.03-14.72 140.22-12.93L140.22-12.93L140.22-12.93Q140.42-11.14 140.45-10.85L140.45-10.85L140.45-10.85Q140.48-10.56 140.77-9.76L140.77-9.76L140.77-9.76Q141.06-8.96 141.50-8.32L141.50-8.32L141.50-8.32Q142.66-6.78 144.77-6.78L144.77-6.78L144.77-6.78Q146.88-6.78 148.32-7.74L148.32-7.74L148.32-7.74Q149.76-8.70 150.46-10.11L150.46-10.11L150.46-10.11Q151.94-13.12 152.26-15.30L152.26-15.30L152.38-16.26L152.38-16.26Q152.70-20.80 152.70-27.01L152.70-27.01L152.70-27.01Q152.70-33.22 152.64-35.14L152.64-35.14L152.64-35.14Q152.58-37.06 152.45-38.30L152.45-38.30L152.45-38.30Q152.32-39.55 152.22-40.51L152.22-40.51L152.22-40.51Q152.13-41.47 152.06-42.02L152.06-42.02L152.06-42.02Q152-42.56 152-42.62L152-42.62L152-42.62Q152-43.33 152.70-43.78L152.70-43.78L152.70-43.78Q153.79-44.61 156.06-45.18L156.06-45.18L156.06-45.18Q158.34-45.76 160.13-45.76L160.13-45.76L160.13-45.76Q161.92-45.76 161.92-44.93L161.92-44.93L161.92-44.93Q161.92-44.80 161.60-42.82L161.60-42.82L161.60-42.82Q160.19-34.11 160.19-18.62L160.19-18.62L160.19-18.62Q160.19-7.17 161.73-2.30L161.73-2.30L161.73-2.30Q161.98-1.54 161.98-1.25L161.98-1.25L161.98-1.25Q161.98-0.96 161.47-0.51L161.47-0.51L161.47-0.51Q159.55 0.96 156.38 0.96L156.38 0.96L156.38 0.96Q153.22 0.96 152.96-0.64L152.96-0.64L152.96-0.64Q152.64-1.47 152.58-3.97L152.58-3.97L152.51-4.74L152.51-4.74Q152.51-5.31 152.26-5.31L152.26-5.31L151.55-4.86L151.55-4.86Q150.34-2.82 148.74-1.44L148.74-1.44L148.74-1.44Q147.14-0.06 145.66 0.45L145.66 0.45L145.66 0.45Q143.55 1.22 141.54 1.22L141.54 1.22L141.54 1.22Q139.52 1.22 137.50 0.16L137.50 0.16L137.50 0.16Q135.49-0.90 134.50-2.30L134.50-2.30L134.50-2.30Q133.50-3.71 132.86-5.63L132.86-5.63L132.86-5.63Q132.03-8.38 132.03-11.14ZM175.87-28.35L175.87-28.35L175.87-28.35Q175.87-8.51 176.77-2.37L176.77-2.37L176.77-2.37Q176.77-0.83 173.82 0.16L173.82 0.16L173.82 0.16Q170.88 1.15 168.96 1.15L168.96 1.15L168.96 1.15Q167.04 1.15 167.04 0.58L167.04 0.58L167.04 0.58Q167.04 0.19 167.23-0.38L167.23-0.38L167.23-0.38Q168.45-3.07 168.45-22.02L168.45-22.02L168.45-22.02Q168.45-39.94 166.91-41.92L166.91-41.92L166.66-42.30L166.66-42.30Q166.27-42.62 166.27-43.10L166.27-43.10L166.27-43.10Q166.27-43.58 166.98-43.90L166.98-43.90L166.98-43.90Q167.94-44.48 170.40-45.06L170.40-45.06L170.40-45.06Q172.86-45.63 174.85-45.63L174.85-45.63L174.85-45.63Q176.83-45.63 176.83-44.74L176.83-44.74L176.83-44.54L176.83-44.54Q176.06-37.89 175.87-28.35Z" fill="url(#editing-shiny-gradient2)"></path></g></g><style>text {
  font-size: 64px;
  font-family: Arial Black;
  dominant-baseline: central;
  text-anchor: middle;
}</style></svg>
